<svg xmlns="http://www.w3.org/2000/svg" width="17" height="17">
  <path d="M2.182 0h12.636c1.2 0 2.1818.8884 2.1818 2.1818v12.6364c0 1.2934-.9818 2.1818-2.1818 2.1818H2.182C.9817 17 0 16.1116 0 14.8182V2.1818C0 .8884.9817 0 2.182 0zm10.2018 1.8888c-.4211 0-.7651.3442-.7651.7654V4.486c0 .421.344.7654.7651.7654h1.9214c.421 0 .7654-.3444.7654-.7654V2.6542c0-.4212-.3444-.7654-.7654-.7654h-1.9214zm2.6948 5.3004h-1.4962c.1448.4726.2183.9641.2182 1.4584 0 2.8276-2.3662 5.1198-5.2844 5.1198-2.9181 0-5.284-2.2922-5.284-5.1198 0-.5069.0765-.9963.2182-1.4584H1.8891v7.1811c0 .3716.304.6758.6759.6758H14.403c.3718 0 .6758-.304.6758-.6758v-7.181h-.0003zM8.516 5.155c-1.8855 0-3.4142 1.481-3.4142 3.3082 0 1.8271 1.5287 3.3082 3.4142 3.3082 1.8856 0 3.4145-1.4811 3.4145-3.3082 0-1.8272-1.5287-3.3082-3.4145-3.3082z"/>
</svg>
