<svg xmlns="http://www.w3.org/2000/svg" width="194" height="37" fill="none">
  <path fill="#CCC" d="M156 37h-1V0h1v37z"/>
  <path fill="#2E6717" fill-rule="evenodd" d="M12 10.5v5.1022h18.2658v9.2574H12v10.7915c1.4474.6083 2.9237 1.0844 4.4 1.3489 8.8868-1.6663 17.2526-8.9135 17.5132-21.7945v-4.3846L12 10.5z" clip-rule="evenodd"/>
  <path fill="#66B821" d="M33.9039 10.8297L34 .6482C28.4072.243 22.7313 0 17 0 11.2687 0 5.5928.243 0 .6752l.083 7.94.1662 6.5086s.0554 6.0765 2.132 10.3976C5.842 33.3803 12.7914 36 12.7914 36V24.9812h17.4707v-9.4523H12.7915v-4.6992h21.1124z"/>
  <path fill="#000" fill-rule="evenodd" d="M50.0628 9.4082v-2.511h5.4795V4.1105h-8.7672v12.7754h3.2877v-4.6907h5.0518v-2.787h-5.0518zm14.6209 1.1037h-2.566V7.0628h2.566c.5345 0 .9087.1104 1.0958.3035.1871.1932.2673.5795.2673 1.159 0 .5794-.0267.9932-.0802 1.2692-.0267.2483-.1603.4415-.3474.5518-.1871.1104-.5079.1656-.9355.1656zm-2.566 2.98h2.566c.882 0 1.3364.5243 1.3364 1.6004v1.7935h3.3144v-2.5661c0-.7174-.1871-1.2693-.588-1.6556-.4009-.3863-.9355-.607-1.6305-.6346v-.138c.7217-.1655 1.283-.4139 1.6038-.745.3474-.3311.5345-.745.6147-1.1865.0802-.4415.1069-1.1037.1069-1.9866 0-1.0486-.1336-1.8487-.4543-2.4006-.2941-.5519-.7485-.9382-1.3632-1.1313-.5881-.2207-1.4167-.3311-2.4324-.3587H58.83v12.803h3.2877v-3.3939zM76.2841 9.215V6.8972h5.6399V4.1105h-8.9543v12.7754h9.0612v-2.8144h-5.7468V11.588h5.2924V9.215h-5.2924zm12.7231 0V6.8972h5.6398V4.1105h-8.9275v12.7754h9.0344v-2.8144h-5.7467V11.588h5.2923V9.215h-5.2923zm12.6428 4.6908v-6.843h2.887c.401 0 .721.0552.962.1655.241.1104.428.3036.535.5795.107.3035.16.7174.16 1.2417v2.6765c0 1.4624-.561 2.1798-1.657 2.1798h-2.887zm-3.3144-9.7954v12.7754h6.7354c1.123 0 2.032-.1931 2.7-.5518.642-.3587 1.123-.9382 1.417-1.6832.267-.745.401-1.7107.401-2.9248V9.0495c0-1.1865-.161-2.1523-.508-2.8973-.348-.7174-.882-1.2416-1.604-1.5728-.748-.331-1.684-.469-2.86-.469h-6.2814zm21.5974 9.7678c-.321.0828-.802.138-1.417.138-.641 0-1.096-.0552-1.417-.138-.32-.0828-.534-.2759-.668-.5794-.16-.276-.24-.745-.24-1.3797V9.0495c0-.6347.08-1.1037.24-1.3796.134-.3036.374-.4967.668-.5795.321-.0828.776-.138 1.417-.138.455 0 .829.0276 1.123.0828.267.0276.508.1104.695.2483.16.138.294.3587.374.6347.08.276.134.6346.134 1.1313v2.8696c0 .6347-.081 1.0761-.214 1.3797-.161.3035-.374.4966-.695.5794zm-3.822 2.8973c.694.1379 1.47.2207 2.405.2207.909 0 1.711-.0828 2.379-.2207.695-.1104 1.283-.3588 1.764-.6899.508-.3311.909-.8002 1.176-1.4348.268-.607.401-1.4072.401-2.3454V8.6908c0-.9658-.133-1.7384-.401-2.373-.294-.607-.668-1.1037-1.176-1.4348-.481-.3312-1.069-.5519-1.764-.6898-.668-.138-1.47-.1932-2.379-.1932-.935 0-1.711.0552-2.405.1932-.669.138-1.257.3586-1.765.6898-.481.331-.882.8277-1.149 1.4348-.294.6346-.428 1.4072-.428 2.373v3.6146c0 .9382.134 1.7384.428 2.3454.267.6346.642 1.1037 1.149 1.4348.508.3311 1.096.5795 1.765.6899zm14.861.1103l-.321-9.7954h.107l3.154 9.7954h2.86l3.154-9.7954h.107l-.321 9.7954H143V4.1104h-5.373l-2.245 8.0019h-.107l-2.352-8.002h-5.239v12.7755h3.288zm-80.0806 8.0847v-1.1037h-2.272V22.432c0-.5243.107-.883.2941-1.1037.2138-.2208.5346-.3312 1.0424-.3312h.2406c.2405 0 .4544 0 .6949.0552V19.921l-.8019-.0276c-.9889 0-1.6839.1932-2.1383.5795-.4276.3863-.6415 1.0761-.6415 2.0694v1.3245H46v1.1037h1.3097v7.8363h1.3097v-7.8363h2.272zm2.2186 7.8363h1.3097v-8.9124H53.11v8.9124zm0-11.313h1.3097v-1.4624H53.11v1.4624zm5.6131 11.313v-5.4633c0-.883.2138-1.5452.6415-1.9315.4276-.3863 1.0958-.5795 1.9512-.5795.882 0 1.4701.1656 1.7107.4415.2672.2759.4009.8554.4009 1.766v5.7668h1.3365V26.902c0-1.2141-.2406-2.0419-.7217-2.4834-.4544-.469-1.283-.6898-2.4591-.6898-.695 0-1.2563.0828-1.684.2484-.5345.1931-.9622.5518-1.283 1.0485v-1.1313h-1.2295v8.9124h1.3365zm14.3268-4.0561c.3474.1932.5345.6898.5345 1.4624s-.2672 1.2693-.8018 1.49c-.3475.1656-1.0157.2208-2.0581.2208-.7485 0-1.2563-.138-1.5771-.4139-.294-.2483-.4276-.7726-.4276-1.5176 0-.6071.1603-1.0485.5078-1.2693.2673-.1655.7751-.2759 1.4701-.2759 1.2028 0 2.0047.1104 2.3522.3035zm.5345-1.5728v1.2693c-.1871-.3863-.4811-.6622-.8553-.8002-.3742-.1656-1.0424-.2207-2.0314-.2207-1.1226 0-1.9245.1655-2.4056.4966-.5881.3863-.9088 1.1313-.9088 2.2074 0 1.1314.3207 1.9315.9088 2.3454.5079.3311 1.3364.5243 2.5125.5243.9088 0 1.5503-.0828 1.9245-.2483.3742-.138.695-.4967.989-1.0486l-.0535 1.1037h1.2296v-5.9324c0-1.2969-.3208-2.1798-.989-2.6213-.5078-.3311-1.4434-.5243-2.7798-.5243-1.1761 0-2.0047.138-2.4591.3863-.6415.3863-.9623 1.1037-.9623 2.235h1.3098v-.2759c0-.5518.1336-.9105.4276-1.0761.2941-.1932.8287-.2759 1.6305-.2759 1.0692 0 1.7641.1379 2.0582.4139.294.2759.4543.9657.4543 2.0418zm5.6132 5.6289v-5.4633c0-.883.2138-1.5452.6415-1.9315.4277-.3863 1.0959-.5795 1.9512-.5795.8821 0 1.4701.1656 1.7107.4415.2672.2759.4009.8554.4009 1.766v5.7668h1.3364V26.902c0-1.2141-.2405-2.0419-.7216-2.4834-.4544-.469-1.283-.6898-2.4591-.6898-.695 0-1.2563.0828-1.6839.2484-.5346.1931-.9623.5518-1.2563 1.0485v-1.1313h-1.2563v8.9124h1.3365zm16.2245-3.2283h-1.2829c0 .9381-.1604 1.5452-.4812 1.8487-.294.3035-.9622.4415-1.9779.4415-.9623 0-1.6038-.2208-1.9245-.6898-.3208-.4415-.4544-1.4073-.4544-2.8421 0-1.4624.1336-2.4281.4277-2.842.294-.4415.9355-.6623 1.9245-.6623.9622 0 1.6304.1656 1.9512.4415.2673.2759.4009.7726.4009 1.5176h1.2563v-.2759c0-1.0485-.3208-1.7935-.989-2.235-.5613-.3587-1.4166-.5519-2.6194-.5519-1.4434 0-2.4057.3311-2.9135.9934-.5079.6622-.7752 1.8763-.7752 3.6422 0 1.7935.2673 3.0076.7752 3.6423.5345.6622 1.4968.9933 2.9402.9933 1.3899 0 2.3254-.2207 2.86-.6622.588-.4967.882-1.4073.882-2.7593zm8.1529-4.1665c.347.4139.534 1.1313.534 2.1522h-4.8913c0-1.0209.1604-1.7383.5079-2.1522.3474-.4139.9894-.6071 1.9244-.6071.936 0 1.577.1932 1.925.6071zm-4.3573 3.2007h6.2013v-.6898c0-1.5452-.294-2.6213-.855-3.2559-.589-.6347-1.551-.9382-2.914-.9382-1.363 0-2.3254.3311-2.8867 1.021-.588.6622-.8553 1.8487-.8553 3.587 0 1.7935.2673 3.0352.8018 3.6699.5346.6622 1.5232.9933 2.9672.9933 1.363 0 2.272-.1656 2.78-.4967.641-.4139.962-1.2141.962-2.4005h-1.31v.2759c0 .6346-.16 1.0485-.454 1.2417-.294.1931-.963.3035-1.978.3035-1.016 0-1.6842-.2208-1.9782-.6347-.3207-.4414-.4811-1.3244-.4811-2.6765zm69.1803-5.9782V11.1366H167v12.7268h7.718v-1.2289h-6.32zm8.364 1.2289h1.318v-8.876h-1.318v8.876zm0-11.2521h1.318v-1.4747h-1.318v1.4747zm8.256 3.4685v-1.1197h-2.286v-1.4202c0-.5189.108-.8739.323-1.0924.215-.2458.565-.3551 1.049-.3551.295 0 .591.0274.86.082v-1.1198c-.242-.0273-.484-.0546-.753-.0546-.995 0-1.721.1912-2.151.5735-.431.4097-.673 1.0925-.673 2.0757v1.3109h-1.317v1.1197h1.317v7.7836h1.345v-7.7836h2.286zm7.126.4097c.35.3823.511 1.0651.511 2.1029h-4.948c0-1.0378.188-1.7206.538-2.1029.323-.3824.995-.5735 1.936-.5735.968 0 1.614.1911 1.963.5735zm-4.437 3.2227H194v-.7374c0-1.5567-.296-2.6219-.887-3.25-.565-.6009-1.56-.9013-2.932-.9013-1.371 0-2.339.3278-2.931.9832-.592.6555-.861 1.8299-.861 3.5778 0 1.8025.269 3.0042.807 3.6596.538.6555 1.533.9559 3.012.9559 1.372 0 2.313-.1639 2.824-.4916.645-.4097.968-1.2017.968-2.376h-1.345v.2731c0 .6281-.134 1.0378-.43 1.229-.296.1911-.968.2731-2.017.2731s-1.721-.1912-2.017-.6009c-.322-.4096-.484-1.2836-.484-2.5945z" clip-rule="evenodd"/>
</svg>
